<?xml version="1.0" encoding="utf-8"?>
<!-- Generator: Adobe Illustrator 15.0.0, SVG Export Plug-In . SVG Version: 6.00 Build 0)  -->
<!DOCTYPE svg PUBLIC "-//W3C//DTD SVG 1.1//EN" "http://www.w3.org/Graphics/SVG/1.1/DTD/svg11.dtd">
<svg version="1.1" id="Layer_1" xmlns="http://www.w3.org/2000/svg" xmlns:xlink="http://www.w3.org/1999/xlink" x="0px" y="0px"
	 width="595.279px" height="841.891px" viewBox="0 0 595.279 841.891" enable-background="new 0 0 595.279 841.891"
	 xml:space="preserve">
<g inkscape:version="0.48.1 r9760" xmlns:sodipodi="http://sodipodi.sourceforge.net/DTD/sodipodi-0.dtd" xmlns:dc="http://purl.org/dc/elements/1.1/" xmlns:rdf="http://www.w3.org/1999/02/22-rdf-syntax-ns#" xmlns:svg="http://www.w3.org/2000/svg" sodipodi:docname="twitter_bootstrap_logo.svg" xmlns:inkscape="http://www.inkscape.org/namespaces/inkscape" xmlns:cc="http://creativecommons.org/ns#">
	<path fill="#359830" d="M593.282,616.846c0,54.566-44.646,99.213-99.213,99.213H97.216c-54.567,0-99.213-44.646-99.213-99.213
		V219.992c0-54.567,44.646-99.214,99.213-99.214H494.07c54.567,0,99.213,44.646,99.213,99.214V616.846z"/>
</g>
<g>
	<path fill="#FFFFFF" d="M345.543,287.934c0,5.1-4.155,9.254-9.255,9.254h-76.53c-5.116,0-9.258-4.154-9.258-9.254v-76.546
		c0-5.1,4.143-9.247,9.258-9.247h76.53c5.1,0,9.255,4.147,9.255,9.247V287.934z"/>
	<path fill="#FFFFFF" d="M459.583,287.934c0,5.1-4.131,9.254-9.239,9.254H373.79c-5.1,0-9.254-4.154-9.254-9.254v-76.546
		c0-5.1,4.154-9.247,9.254-9.247h76.554c5.108,0,9.239,4.147,9.239,9.247V287.934z"/>
	<path fill="#FFFFFF" d="M459.583,516.031c0,5.1-4.131,9.246-9.239,9.246H373.79c-5.1,0-9.254-4.146-9.254-9.246v-76.547
		c0-5.107,4.154-9.238,9.254-9.238h76.554c5.108,0,9.239,4.131,9.239,9.238V516.031z"/>
	<path fill="#FFFFFF" d="M231.487,401.911c0,5.116-4.138,9.247-9.238,9.247h-76.546c-5.116,0-9.25-4.131-9.25-9.247v-76.546
		c0-5.1,4.135-9.246,9.25-9.246h76.546c5.1,0,9.238,4.146,9.238,9.246V401.911z"/>
	<path fill="#FFFFFF" d="M345.543,401.911c0,5.116-4.155,9.247-9.255,9.247h-76.53c-5.116,0-9.258-4.131-9.258-9.247v-76.546
		c0-5.1,4.143-9.246,9.258-9.246h76.53c5.1,0,9.255,4.146,9.255,9.246V401.911z"/>
	<path fill="#FFFFFF" d="M231.487,516.031c0,5.1-4.138,9.246-9.238,9.246h-76.546c-5.116,0-9.25-4.146-9.25-9.246v-76.547
		c0-5.107,4.135-9.238,9.25-9.238h76.546c5.1,0,9.238,4.131,9.238,9.238V516.031z"/>
	<path fill="#FFFFFF" d="M345.543,516.031c0,5.1-4.155,9.246-9.255,9.246h-76.53c-5.116,0-9.258-4.146-9.258-9.246v-76.547
		c0-5.107,4.143-9.238,9.258-9.238h76.53c5.1,0,9.255,4.131,9.255,9.238V516.031z"/>
	<path fill="#FFFFFF" d="M231.487,630.197c0,5.117-4.138,9.248-9.238,9.248h-76.546c-5.116,0-9.25-4.131-9.25-9.248v-76.529
		c0-5.131,4.135-9.262,9.25-9.262h76.546c5.1,0,9.238,4.131,9.238,9.262V630.197z"/>
	<path fill="#FFFFFF" d="M345.543,630.197c0,5.117-4.155,9.248-9.255,9.248h-76.53c-5.116,0-9.258-4.131-9.258-9.248v-76.529
		c0-5.131,4.143-9.262,9.258-9.262h76.53c5.1,0,9.255,4.131,9.255,9.262V630.197z"/>
	<path fill="#FFFFFF" d="M236.238,249.661c0,28.868-23.395,52.278-52.262,52.278c-28.872,0-52.274-23.41-52.274-52.278
		s23.402-52.27,52.274-52.27C212.843,197.391,236.238,220.793,236.238,249.661"/>
</g>
</svg>
